<?xml version="1.0" standalone="no"?>
<!DOCTYPE svg PUBLIC "-//W3C//DTD SVG 20010904//EN"
 "http://www.w3.org/TR/2001/REC-SVG-20010904/DTD/svg10.dtd">
<svg version="1.0" xmlns="http://www.w3.org/2000/svg"
 width="134.000000pt" height="134.000000pt" viewBox="0 0 134.000000 134.000000"
 preserveAspectRatio="xMidYMid meet">

<g transform="translate(0.000000,134.000000) scale(0.100000,-0.100000)"
fill="#000000" stroke="none">
<path d="M674 1305 c-167 -36 -298 -160 -334 -313 -12 -53 -10 -139 8 -264 8
-60 40 -108 71 -108 27 -1 46 -23 59 -67 8 -27 26 -54 52 -76 22 -19 40 -37
40 -41 0 -3 -10 -21 -22 -39 l-21 -33 -34 35 c-27 28 -42 36 -76 38 -23 1 -63
5 -88 9 -39 5 -50 2 -76 -20 -18 -16 -34 -40 -38 -59 -3 -17 -13 -55 -22 -84
-18 -57 -9 -83 28 -83 12 0 19 -7 19 -18 0 -20 -34 -57 -53 -57 -24 0 -60 -34
-54 -49 6 -15 24 -19 102 -20 17 -1 40 -7 53 -14 17 -10 27 -11 37 -2 10 8 18
8 33 -1 12 -7 27 -9 38 -4 11 5 32 10 48 12 16 2 37 9 45 17 9 7 28 16 42 20
37 8 63 50 49 76 -13 25 -22 25 -38 0 -15 -24 -32 -26 -32 -3 0 9 -14 40 -30
70 -25 45 -28 56 -18 72 7 11 20 22 30 24 16 5 18 -2 18 -49 0 -47 3 -56 26
-71 21 -14 31 -15 56 -5 27 10 32 8 54 -16 13 -15 26 -35 30 -45 7 -21 -12
-47 -35 -47 -26 0 -61 -29 -55 -45 5 -12 26 -15 94 -15 98 0 105 5 83 57 -7
18 -13 43 -13 55 0 21 5 23 42 22 50 -1 57 -14 34 -69 -28 -65 -27 -66 77 -63
84 3 92 5 92 23 0 14 -11 24 -40 33 -22 7 -44 17 -48 21 -9 9 12 61 25 61 5 0
13 12 19 27 7 18 13 23 18 15 4 -6 21 -14 38 -18 24 -5 36 -1 52 15 12 12 21
27 21 35 0 43 -23 121 -46 156 -26 39 -27 41 -8 55 10 8 22 15 26 15 13 0 58
74 58 96 0 24 29 54 52 54 30 0 62 49 70 108 18 125 20 211 8 264 -54 230
-306 370 -566 313z m245 -343 c7 -13 32 -27 68 -37 59 -17 162 -69 176 -89 11
-16 -2 -105 -23 -153 -61 -139 -249 -233 -410 -205 -168 30 -303 153 -310 283
-5 80 -3 83 59 117 65 35 192 72 251 72 79 0 100 10 128 61 l27 48 12 -38 c6
-21 16 -48 22 -59z m-503 -257 c18 -59 18 -65 4 -65 -20 0 -45 26 -54 56 -7
23 8 74 21 74 5 0 17 -29 29 -65z m795 39 c16 -43 -14 -104 -51 -104 -14 0
-14 6 4 65 12 36 24 65 29 65 4 0 12 -12 18 -26z m-819 -332 c40 -15 45 -20
36 -35 -8 -15 -6 -19 11 -24 31 -8 26 -31 -16 -69 l-36 -33 29 2 c26 2 32 -4
57 -53 31 -61 30 -94 -5 -122 -30 -27 -50 -23 -42 7 3 14 2 25 -4 25 -5 0 -12
-13 -15 -30 -4 -18 -13 -30 -22 -30 -11 0 -14 6 -9 24 5 22 -16 56 -36 56 -36
0 -53 -33 -28 -58 6 -6 8 -15 4 -19 -14 -14 -44 37 -56 93 -10 48 -9 58 4 73
20 22 34 121 17 121 -6 0 -11 -17 -11 -41 0 -22 -5 -49 -10 -60 -12 -21 -60
-27 -60 -7 0 12 26 105 42 149 17 49 73 60 150 31z m379 -84 c18 -34 18 -34
44 -3 13 17 26 27 30 23 9 -9 -37 -88 -52 -88 -12 0 -53 60 -53 79 0 19 19 12
31 -11z m-170 -71 c10 -17 9 -19 -5 -14 -9 4 -16 2 -16 -3 0 -6 5 -10 12 -10
9 0 9 -3 1 -11 -15 -15 -59 -4 -67 17 -4 9 -4 24 -1 34 7 23 62 14 76 -13z
m459 -7 c0 -23 -20 -40 -48 -40 -19 0 -22 4 -17 20 5 16 3 19 -12 13 -15 -6
-16 -4 -5 9 17 22 82 20 82 -2z m-490 -108 c0 -12 -39 -52 -50 -52 -16 0 -12
11 13 35 23 24 37 30 37 17z m-320 -14 c0 -7 3 -23 6 -35 6 -20 3 -23 -23 -23
-18 0 -38 9 -49 21 -19 21 -19 22 3 15 16 -5 25 -2 33 14 12 22 30 27 30 8z
m489 -27 c12 -21 5 -31 -20 -31 -24 0 -33 18 -19 35 17 20 27 19 39 -4z m149
7 c8 -8 9 -15 1 -25 -22 -26 -55 -10 -43 21 7 19 25 21 42 4z m-528 -19 c0
-14 -5 -19 -17 -17 -26 5 -29 38 -4 38 15 0 21 -6 21 -21z m-190 -9 c0 -5 -2
-10 -4 -10 -3 0 -8 5 -11 10 -3 6 -1 10 4 10 6 0 11 -4 11 -10z m524 -15 c18
-14 15 -15 -39 -15 -58 0 -67 13 -15 23 14 2 27 5 30 5 3 1 14 -5 24 -13z
m281 -6 c5 -5 -16 -9 -50 -9 -53 0 -57 1 -39 14 19 15 70 12 89 -5z"/>
<path d="M540 888 c-72 -49 -97 -124 -65 -192 49 -103 198 -114 261 -20 16 26
24 30 38 22 21 -12 36 -1 16 12 -12 7 -12 12 0 34 18 34 30 33 30 -3 0 -38 38
-92 80 -113 76 -39 162 -12 201 62 24 45 24 84 -1 135 -52 107 -201 113 -261
10 -28 -47 -71 -49 -94 -6 -40 78 -137 105 -205 59z m138 -34 c27 -19 52 -65
52 -97 0 -37 -41 -91 -80 -103 -71 -24 -139 22 -147 100 -5 42 -3 48 30 81 29
29 42 35 79 35 24 0 54 -7 66 -16z m368 -18 c45 -45 48 -101 7 -146 -73 -80
-199 -36 -197 69 2 68 47 110 118 111 30 0 45 -7 72 -34z m-266 -76 c0 -5 -4
-10 -10 -10 -5 0 -10 5 -10 10 0 6 5 10 10 10 6 0 10 -4 10 -10z"/>
<path d="M518 784 c-10 -10 11 -78 28 -91 23 -17 94 -16 116 1 21 15 41 64 34
83 -4 9 -29 13 -89 13 -46 0 -86 -2 -89 -6z m50 -39 c8 -17 20 -25 37 -25 17
0 29 8 37 25 12 28 38 34 38 10 0 -20 -44 -65 -64 -65 -30 0 -67 20 -75 42
-16 42 9 53 27 13z"/>
<path d="M884 777 c-7 -19 13 -68 34 -83 22 -17 93 -18 116 -1 17 13 38 81 28
91 -3 4 -43 6 -89 6 -60 0 -85 -4 -89 -13z m54 -32 c16 -34 58 -34 74 0 13 29
35 28 30 -1 -5 -27 -23 -43 -59 -50 -26 -5 -37 -1 -57 19 -14 15 -26 33 -26
42 0 24 26 18 38 -10z"/>
<path d="M730 640 c0 -13 34 -30 62 -30 30 0 66 25 54 37 -5 4 -11 2 -13 -4
-6 -15 -83 -18 -83 -3 0 6 -4 10 -10 10 -5 0 -10 -4 -10 -10z"/>
<path d="M345 390 c3 -5 8 -10 11 -10 2 0 4 5 4 10 0 6 -5 10 -11 10 -5 0 -7
-4 -4 -10z"/>
</g>
</svg>
